<?xml version="1.0" encoding="utf-8"?>
<!-- Generated by Mocodo 4.2.11 -->
<svg width="864" height="758" viewBox="0 0 864 758" xmlns="http://www.w3.org/2000/svg">
<rect x="0" y="0" width="864" height="758" fill="#f5f5f5" stroke="none" stroke-width="0"/>

<!-- Inheritance CONSTRUCTION_PARENT_#1 -->
<g>
	<line x1="276" y1="345" x2="276" y2="227" stroke="#bf812d" stroke-width="2"/>
	<line x1="272" y1="345" x2="272" y2="227" stroke="#bf812d" stroke-width="2"/>
	<line x1="152" y1="227" x2="274" y2="227" stroke="#bf812d" stroke-width="2"/>
	<polygon points="187 227 199 221 195 227 199 233" fill="#bf812d" stroke-width="0"/>
	<line x1="274" y1="143" x2="274" y2="227" stroke="#bf812d" stroke-width="2"/>
	<polygon points="274 168 280 180 274 176 268 180" fill="#bf812d" stroke-width="0"/>
	<g>
		<polygon points="274 201.6 252 239.7 296 239.7" stroke="#bf812d" stroke-width="2" fill="#dfc27d"/>
		<text x="266" y="232" fill="#000000" font-family="Verdana" font-size="12">XT</text>
	</g>
</g>

<!-- Inheritance PHOTO_PARENT_#2 -->
<g>
	<line x1="152" y1="473" x2="274" y2="473" stroke="#bf812d" stroke-width="2"/>
	<line x1="152" y1="469" x2="274" y2="469" stroke="#bf812d" stroke-width="2"/>
	<line x1="274" y1="345" x2="274" y2="471" stroke="#bf812d" stroke-width="2"/>
	<polygon points="274 404 280 416 274 412 268 416" fill="#bf812d" stroke-width="0"/>
	<line x1="406" y1="471" x2="274" y2="471" stroke="#bf812d" stroke-width="2"/>
	<polygon points="374 471 362 477 366 471 362 465" fill="#bf812d" stroke-width="0"/>
	<g>
		<polygon points="274 445.6 252 483.7 296 483.7" stroke="#bf812d" stroke-width="2" fill="#dfc27d"/>
		<text x="266" y="476" fill="#000000" font-family="Verdana" font-size="12">XT</text>
	</g>
</g>

<!-- Association CONTENU -->
<g>
	<line x1="406" y1="51" x2="274" y2="51" stroke="#bf812d" stroke-width="2"/>
	<line x1="274" y1="143" x2="274" y2="51" stroke="#bf812d" stroke-width="2"/>
	<g>
		<path d="M293 26 a14 14 90 0 1 14 14 V51 h-66 V40 a14 14 90 0 1 14 -14" fill="#dfc27d" stroke="#dfc27d" stroke-width="0"/>
		<path d="M307 51 v11 a14 14 90 0 1 -14 14 H255 a14 14 90 0 1 -14 -14 V51 H66" fill="#f6e8c3" stroke="#f6e8c3" stroke-width="0"/>
		<rect x="241" y="26" width="66" height="50" fill="none" rx="14" stroke="#bf812d" stroke-width="2"/>
		<line x1="241" y1="51" x2="307" y2="51" stroke="#bf812d" stroke-width="1"/>
		<text x="249" y="43.75" fill="#000000" font-family="Verdana" font-size="12">Contenu</text>
	</g>
	<text x="344" y="68" fill="#01665e" font-family="Verdana" font-size="12">1,1</text>
	<text x="279" y="110" fill="#01665e" font-family="Verdana" font-size="12">0,N</text>
</g>

<!-- Association PROPOSE -->
<g>
	<line x1="274" y1="143" x2="406" y2="143" stroke="#bf812d" stroke-width="2"/>
	<line x1="535" y1="227" x2="406" y2="143" stroke="#bf812d" stroke-width="2"/>
	<g>
		<path d="M424 118 a14 14 90 0 1 14 14 V143 h-64 V132 a14 14 90 0 1 14 -14" fill="#dfc27d" stroke="#dfc27d" stroke-width="0"/>
		<path d="M438 143 v11 a14 14 90 0 1 -14 14 H388 a14 14 90 0 1 -14 -14 V143 H64" fill="#f6e8c3" stroke="#f6e8c3" stroke-width="0"/>
		<rect x="374" y="118" width="64" height="50" fill="none" rx="14" stroke="#bf812d" stroke-width="2"/>
		<line x1="374" y1="143" x2="438" y2="143" stroke="#bf812d" stroke-width="1"/>
		<text x="382" y="135.75" fill="#000000" font-family="Verdana" font-size="12">Proposé</text>
	</g>
	<text x="339" y="160" fill="#01665e" font-family="Verdana" font-size="12">1,1</text>
	<text x="483" y="222.72" fill="#01665e" font-family="Verdana" font-size="12">0,N</text>
</g>

<!-- Association SUIVRE -->
<g>
	<line x1="274" y1="345" x2="152" y2="345" stroke="#bf812d" stroke-width="2"/>
	<line x1="51" y1="345" x2="152" y2="345" stroke="#bf812d" stroke-width="2"/>
	<g>
		<path d="M165 320 a14 14 90 0 1 14 14 V345 h-54 V334 a14 14 90 0 1 14 -14" fill="#dfc27d" stroke="#dfc27d" stroke-width="0"/>
		<path d="M179 345 v11 a14 14 90 0 1 -14 14 H139 a14 14 90 0 1 -14 -14 V345 H54" fill="#f6e8c3" stroke="#f6e8c3" stroke-width="0"/>
		<rect x="125" y="320" width="54" height="50" fill="none" rx="14" stroke="#bf812d" stroke-width="2"/>
		<line x1="125" y1="345" x2="179" y2="345" stroke="#bf812d" stroke-width="1"/>
		<text x="133" y="337.75" fill="#000000" font-family="Verdana" font-size="12">Suivre</text>
	</g>
	<text x="191" y="362" fill="#01665e" font-family="Verdana" font-size="12">1,N</text>
	<text x="98" y="362" fill="#01665e" font-family="Verdana" font-size="12">1,1</text>
	<line x1="98" y1="364" x2="119" y2="364" stroke="#01665e" stroke-width="1"/>
</g>

<!-- Association ASSEMBLAGE -->
<g>
	<line x1="274" y1="345" x2="406" y2="345" stroke="#bf812d" stroke-width="2"/>
	<line x1="406" y1="471" x2="406" y2="345" stroke="#bf812d" stroke-width="2"/>
	<g>
		<path d="M436 320 a14 14 90 0 1 14 14 V345 h-88 V334 a14 14 90 0 1 14 -14" fill="#dfc27d" stroke="#dfc27d" stroke-width="0"/>
		<path d="M450 345 v11 a14 14 90 0 1 -14 14 H376 a14 14 90 0 1 -14 -14 V345 H88" fill="#f6e8c3" stroke="#f6e8c3" stroke-width="0"/>
		<rect x="362" y="320" width="88" height="50" fill="none" rx="14" stroke="#bf812d" stroke-width="2"/>
		<line x1="362" y1="345" x2="450" y2="345" stroke="#bf812d" stroke-width="1"/>
		<text x="370" y="337.75" fill="#000000" font-family="Verdana" font-size="12">Assemblage</text>
	</g>
	<text x="335" y="362" fill="#01665e" font-family="Verdana" font-size="12">1,N</text>
	<text x="379" y="404" fill="#01665e" font-family="Verdana" font-size="12">0,N</text>
</g>

<!-- Association FABRIQUE -->
<g>
	<line x1="535" y1="227" x2="535" y2="345" stroke="#bf812d" stroke-width="2"/>
	<line x1="406" y1="471" x2="535" y2="345" stroke="#bf812d" stroke-width="2"/>
	<g>
		<path d="M555 311 a14 14 90 0 1 14 14 V336 h-68 V325 a14 14 90 0 1 14 -14" fill="#dfc27d" stroke="#dfc27d" stroke-width="0"/>
		<path d="M569 336 v29 a14 14 90 0 1 -14 14 H515 a14 14 90 0 1 -14 -14 V336 H68" fill="#f6e8c3" stroke="#f6e8c3" stroke-width="0"/>
		<rect x="501" y="311" width="68" height="68" fill="none" rx="14" stroke="#bf812d" stroke-width="2"/>
		<line x1="501" y1="336" x2="569" y2="336" stroke="#bf812d" stroke-width="1"/>
		<text x="509" y="328.75" fill="#000000" font-family="Verdana" font-size="12">Fabriqué</text>
		<text x="508" y="353.8" fill="#000000" font-family="Verdana" font-size="12">Date</text>
		<text x="508" y="370.8" fill="#000000" font-family="Verdana" font-size="12">Quantité</text>
	</g>
	<text x="540" y="278" fill="#01665e" font-family="Verdana" font-size="12">0,N</text>
	<text x="443" y="449.79" fill="#01665e" font-family="Verdana" font-size="12">1,1</text>
</g>

<!-- Association EVOLUTION -->
<g>
	<path d="M667 471 C624.33 451 624.33 409 667 345" fill="none" stroke="#bf812d" stroke-width="2"/>
	<path d="M667 471 C708.33 451 708.33 409 667 345" fill="none" stroke="#bf812d" stroke-width="2"/>
	<g>
		<path d="M689 320 a14 14 90 0 1 14 14 V345 h-72 V334 a14 14 90 0 1 14 -14" fill="#dfc27d" stroke="#dfc27d" stroke-width="0"/>
		<path d="M703 345 v11 a14 14 90 0 1 -14 14 H645 a14 14 90 0 1 -14 -14 V345 H72" fill="#f6e8c3" stroke="#f6e8c3" stroke-width="0"/>
		<rect x="631" y="320" width="72" height="50" fill="none" rx="14" stroke="#bf812d" stroke-width="2"/>
		<line x1="631" y1="345" x2="703" y2="345" stroke="#bf812d" stroke-width="1"/>
		<text x="639" y="337.75" fill="#000000" font-family="Verdana" font-size="12">Évolution</text>
	</g>
	<text x="641" y="429" fill="#01665e" font-family="Verdana" font-size="12">0,N</text>
	<text x="671" y="429" fill="#01665e" font-family="Verdana" font-size="12">1,1</text>
</g>

<!-- Association ENREGISTRE -->
<g>
	<line x1="406" y1="471" x2="535" y2="471" stroke="#bf812d" stroke-width="2"/>
	<line x1="535" y1="580" x2="535" y2="471" stroke="#bf812d" stroke-width="2"/>
	<g>
		<path d="M563 437 a14 14 90 0 1 14 14 V462 h-84 V451 a14 14 90 0 1 14 -14" fill="#dfc27d" stroke="#dfc27d" stroke-width="0"/>
		<path d="M577 462 v29 a14 14 90 0 1 -14 14 H507 a14 14 90 0 1 -14 -14 V462 H84" fill="#f6e8c3" stroke="#f6e8c3" stroke-width="0"/>
		<rect x="493" y="437" width="84" height="68" fill="none" rx="14" stroke="#bf812d" stroke-width="2"/>
		<line x1="493" y1="462" x2="577" y2="462" stroke="#bf812d" stroke-width="1"/>
		<text x="504" y="454.75" fill="#000000" font-family="Verdana" font-size="12">Enregistre</text>
		<text x="500" y="479.8" fill="#000000" font-family="Verdana" font-size="12">Description</text>
		<text x="500" y="496.8" fill="#000000" font-family="Verdana" font-size="12">Action</text>
	</g>
	<text x="443" y="488" fill="#01665e" font-family="Verdana" font-size="12">0,N</text>
	<text x="540" y="530" fill="#01665e" font-family="Verdana" font-size="12">1,1</text>
</g>

<!-- Association POSSEDER1 -->
<g>
	<line x1="406" y1="471" x2="406" y2="580" stroke="#bf812d" stroke-width="2"/>
	<line x1="406" y1="698" x2="406" y2="580" stroke="#bf812d" stroke-width="2"/>
	<g>
		<path d="M427 555 a14 14 90 0 1 14 14 V580 h-70 V569 a14 14 90 0 1 14 -14" fill="#dfc27d" stroke="#dfc27d" stroke-width="0"/>
		<path d="M441 580 v11 a14 14 90 0 1 -14 14 H385 a14 14 90 0 1 -14 -14 V580 H70" fill="#f6e8c3" stroke="#f6e8c3" stroke-width="0"/>
		<rect x="371" y="555" width="70" height="50" fill="none" rx="14" stroke="#bf812d" stroke-width="2"/>
		<line x1="371" y1="580" x2="441" y2="580" stroke="#bf812d" stroke-width="1"/>
		<text x="379" y="572.75" fill="#000000" font-family="Verdana" font-size="12">Posséder</text>
	</g>
	<text x="411" y="547" fill="#01665e" font-family="Verdana" font-size="12">1,1</text>
	<text x="411" y="648" fill="#01665e" font-family="Verdana" font-size="12">1,N</text>
</g>

<!-- Association POSSEDE -->
<g>
	<line x1="667" y1="698" x2="667" y2="580" stroke="#bf812d" stroke-width="2"/>
	<line x1="667" y1="471" x2="667" y2="580" stroke="#bf812d" stroke-width="2"/>
	<g>
		<path d="M685 555 a14 14 90 0 1 14 14 V580 h-64 V569 a14 14 90 0 1 14 -14" fill="#dfc27d" stroke="#dfc27d" stroke-width="0"/>
		<path d="M699 580 v11 a14 14 90 0 1 -14 14 H649 a14 14 90 0 1 -14 -14 V580 H64" fill="#f6e8c3" stroke="#f6e8c3" stroke-width="0"/>
		<rect x="635" y="555" width="64" height="50" fill="none" rx="14" stroke="#bf812d" stroke-width="2"/>
		<line x1="635" y1="580" x2="699" y2="580" stroke="#bf812d" stroke-width="1"/>
		<text x="642" y="572.75" fill="#000000" font-family="Verdana" font-size="12">Possède</text>
	</g>
	<text x="672" y="639" fill="#01665e" font-family="Verdana" font-size="12">1,1</text>
	<text x="672" y="522" fill="#01665e" font-family="Verdana" font-size="12">0,N</text>
</g>

<!-- Association COMPRENDRE -->
<g>
	<line x1="535" y1="580" x2="535" y2="698" stroke="#bf812d" stroke-width="2"/>
	<line x1="667" y1="698" x2="535" y2="698" stroke="#bf812d" stroke-width="2"/>
	<g>
		<path d="M566 673 a14 14 90 0 1 14 14 V698 h-90 V687 a14 14 90 0 1 14 -14" fill="#dfc27d" stroke="#dfc27d" stroke-width="0"/>
		<path d="M580 698 v11 a14 14 90 0 1 -14 14 H504 a14 14 90 0 1 -14 -14 V698 H90" fill="#f6e8c3" stroke="#f6e8c3" stroke-width="0"/>
		<rect x="490" y="673" width="90" height="50" fill="none" rx="14" stroke="#bf812d" stroke-width="2"/>
		<line x1="490" y1="698" x2="580" y2="698" stroke="#bf812d" stroke-width="1"/>
		<text x="498" y="690.75" fill="#000000" font-family="Verdana" font-size="12">Comprendre</text>
	</g>
	<text x="540" y="639" fill="#01665e" font-family="Verdana" font-size="12">1,1</text>
	<line x1="540" y1="641" x2="561" y2="641" stroke="#01665e" stroke-width="1"/>
	<text x="605" y="715" fill="#01665e" font-family="Verdana" font-size="12">1,N</text>
</g>

<!-- Association DEROULER -->
<g>
	<line x1="667" y1="698" x2="793" y2="698" stroke="#bf812d" stroke-width="2"/>
	<line x1="793" y1="580" x2="793" y2="698" stroke="#bf812d" stroke-width="2"/>
	<g>
		<path d="M813 673 a14 14 90 0 1 14 14 V698 h-68 V687 a14 14 90 0 1 14 -14" fill="#dfc27d" stroke="#dfc27d" stroke-width="0"/>
		<path d="M827 698 v11 a14 14 90 0 1 -14 14 H773 a14 14 90 0 1 -14 -14 V698 H68" fill="#f6e8c3" stroke="#f6e8c3" stroke-width="0"/>
		<rect x="759" y="673" width="68" height="50" fill="none" rx="14" stroke="#bf812d" stroke-width="2"/>
		<line x1="759" y1="698" x2="827" y2="698" stroke="#bf812d" stroke-width="1"/>
		<text x="767" y="690.75" fill="#000000" font-family="Verdana" font-size="12">Dérouler</text>
	</g>
	<text x="707" y="715" fill="#01665e" font-family="Verdana" font-size="12">1,N</text>
	<text x="798" y="639" fill="#01665e" font-family="Verdana" font-size="12">0,1</text>
</g>

<!-- Entity BOITE -->
<g>
	<g>
		<rect x="370" y="9" width="72" height="25" fill="#80cdc1" stroke="none" stroke-width="0" opacity="1"/>
		<rect x="370" y="34" width="72" height="59" fill="#c7eae5" stroke="none" stroke-width="0" opacity="1"/>
		<rect x="370" y="9" width="72" height="84" fill="none" stroke="#35978f" stroke-width="2" opacity="1"/>
		<line x1="370" y1="34" x2="442" y2="34" stroke="#35978f" stroke-width="1"/>
	</g>
	<text x="387" y="26.75" fill="#000000" font-family="Verdana" font-size="12">BOITE</text>
	<text x="375" y="51.8" fill="#000000" font-family="Verdana" font-size="12">Référence</text>
	<line x1="375" y1="54" x2="436" y2="54" stroke="#000000" stroke-width="1"/>
	<text x="375" y="68.8" fill="#000000" font-family="Verdana" font-size="12">nom</text>
	<text x="375" y="85.8" fill="#000000" font-family="Verdana" font-size="12">prix</text>
</g>

<!-- Entity OFFICIEL -->
<g>
	<g>
		<rect x="214" y="118" width="120" height="25" fill="#80cdc1" stroke="none" stroke-width="0" opacity="1"/>
		<rect x="214" y="143" width="120" height="25" fill="#c7eae5" stroke="none" stroke-width="0" opacity="1"/>
		<rect x="214" y="118" width="120" height="50" fill="none" stroke="#35978f" stroke-width="2" opacity="1"/>
		<line x1="214" y1="143" x2="334" y2="143" stroke="#35978f" stroke-width="1"/>
	</g>
	<text x="246" y="135.75" fill="#000000" font-family="Verdana" font-size="12">OFFICIEL</text>
	<text x="219" y="160.8" fill="#000000" font-family="Verdana" font-size="12">Age_recommandé</text>
</g>

<!-- Entity AMATEUR -->
<g>
	<g>
		<rect x="117" y="193" width="70" height="25" fill="#80cdc1" stroke="none" stroke-width="0" opacity="1"/>
		<rect x="117" y="218" width="70" height="43" fill="#c7eae5" stroke="none" stroke-width="0" opacity="1"/>
		<rect x="117" y="193" width="70" height="68" fill="none" stroke="#35978f" stroke-width="2" opacity="1"/>
		<line x1="117" y1="218" x2="187" y2="218" stroke="#35978f" stroke-width="1"/>
	</g>
	<text x="122" y="210.75" fill="#000000" font-family="Verdana" font-size="12">AMATEUR</text>
	<text x="122" y="235.8" fill="#000000" font-family="Verdana" font-size="12">Nom</text>
	<text x="122" y="252.8" fill="#000000" font-family="Verdana" font-size="12">Licence</text>
</g>

<!-- Entity USINE -->
<g>
	<g>
		<rect x="510" y="193" width="50" height="25" fill="#80cdc1" stroke="none" stroke-width="0" opacity="1"/>
		<rect x="510" y="218" width="50" height="43" fill="#c7eae5" stroke="none" stroke-width="0" opacity="1"/>
		<rect x="510" y="193" width="50" height="68" fill="none" stroke="#35978f" stroke-width="2" opacity="1"/>
		<line x1="510" y1="218" x2="560" y2="218" stroke="#35978f" stroke-width="1"/>
	</g>
	<text x="515" y="210.75" fill="#000000" font-family="Verdana" font-size="12">USINE</text>
	<text x="515" y="235.8" fill="#000000" font-family="Verdana" font-size="12">Ville</text>
	<line x1="515" y1="238" x2="541" y2="238" stroke="#000000" stroke-width="1"/>
	<text x="515" y="252.8" fill="#000000" font-family="Verdana" font-size="12">Pays</text>
</g>

<!-- Entity ETAPE -->
<g>
	<g>
		<rect x="9" y="303" width="84" height="25" fill="#80cdc1" stroke="none" stroke-width="0" opacity="1"/>
		<rect x="9" y="328" width="84" height="59" fill="#c7eae5" stroke="none" stroke-width="0" opacity="1"/>
		<rect x="9" y="303" width="84" height="84" fill="none" stroke="#35978f" stroke-width="2" opacity="1"/>
		<line x1="9" y1="328" x2="93" y2="328" stroke="#35978f" stroke-width="1"/>
	</g>
	<text x="32" y="320.75" fill="#000000" font-family="Verdana" font-size="12">ÉTAPE</text>
	<text x="14" y="345.8" fill="#000000" font-family="Verdana" font-size="12">Numéro</text>
	<line x1="14" y1="348" x2="63" y2="348" stroke="#000000" stroke-width="1" stroke-dasharray="4"/>
	<text x="14" y="362.8" fill="#000000" font-family="Verdana" font-size="12">Image</text>
	<text x="14" y="379.8" fill="#000000" font-family="Verdana" font-size="12">Instructions</text>
</g>

<!-- Entity CONSTRUCTION -->
<g>
	<g>
		<rect x="218" y="286" width="112" height="25" fill="#80cdc1" stroke="none" stroke-width="0" opacity="1"/>
		<rect x="218" y="311" width="112" height="93" fill="#c7eae5" stroke="none" stroke-width="0" opacity="1"/>
		<rect x="218" y="286" width="112" height="118" fill="none" stroke="#35978f" stroke-width="2" opacity="1"/>
		<line x1="218" y1="311" x2="330" y2="311" stroke="#35978f" stroke-width="1"/>
	</g>
	<text x="224" y="303.75" fill="#000000" font-family="Verdana" font-size="12">CONSTRUCTION</text>
	<text x="223" y="328.8" fill="#000000" font-family="Verdana" font-size="12">Nom</text>
	<text x="223" y="345.8" fill="#000000" font-family="Verdana" font-size="12">Thème</text>
	<text x="223" y="362.8" fill="#000000" font-family="Verdana" font-size="12">Description</text>
	<text x="223" y="379.8" fill="#000000" font-family="Verdana" font-size="12">Année_de_sortie</text>
	<text x="223" y="396.8" fill="#000000" font-family="Verdana" font-size="12">Dimensions</text>
</g>

<!-- Entity PHOTO -->
<g>
	<g>
		<rect x="84" y="429" width="136" height="25" fill="#80cdc1" stroke="none" stroke-width="0" opacity="1"/>
		<rect x="84" y="454" width="136" height="59" fill="#c7eae5" stroke="none" stroke-width="0" opacity="1"/>
		<rect x="84" y="429" width="136" height="84" fill="none" stroke="#35978f" stroke-width="2" opacity="1"/>
		<line x1="84" y1="454" x2="220" y2="454" stroke="#35978f" stroke-width="1"/>
	</g>
	<text x="130" y="446.75" fill="#000000" font-family="Verdana" font-size="12">PHOTO</text>
	<text x="89" y="471.8" fill="#000000" font-family="Verdana" font-size="12">Titre</text>
	<line x1="89" y1="474" x2="118" y2="474" stroke="#000000" stroke-width="1"/>
	<text x="89" y="488.8" fill="#000000" font-family="Verdana" font-size="12">Description</text>
	<text x="89" y="505.8" fill="#000000" font-family="Verdana" font-size="12">Chemin_vers_fichier</text>
</g>

<!-- Entity PIECE -->
<g>
	<g>
		<rect x="374" y="412" width="64" height="25" fill="#80cdc1" stroke="none" stroke-width="0" opacity="1"/>
		<rect x="374" y="437" width="64" height="93" fill="#c7eae5" stroke="none" stroke-width="0" opacity="1"/>
		<rect x="374" y="412" width="64" height="118" fill="none" stroke="#35978f" stroke-width="2" opacity="1"/>
		<line x1="374" y1="437" x2="438" y2="437" stroke="#35978f" stroke-width="1"/>
	</g>
	<text x="390" y="429.75" fill="#000000" font-family="Verdana" font-size="12">piece</text>
	<text x="379" y="454.8" fill="#000000" font-family="Verdana" font-size="12">id_serial</text>
	<text x="379" y="471.8" fill="#000000" font-family="Verdana" font-size="12">longueur</text>
	<text x="379" y="488.8" fill="#000000" font-family="Verdana" font-size="12">largeur</text>
	<text x="379" y="505.8" fill="#000000" font-family="Verdana" font-size="12">hauteur</text>
	<text x="379" y="522.8" fill="#000000" font-family="Verdana" font-size="12">couleur</text>
</g>

<!-- Entity CONFIGURATION -->
<g>
	<g>
		<rect x="609" y="437" width="116" height="25" fill="#80cdc1" stroke="none" stroke-width="0" opacity="1"/>
		<rect x="609" y="462" width="116" height="43" fill="#c7eae5" stroke="none" stroke-width="0" opacity="1"/>
		<rect x="609" y="437" width="116" height="68" fill="none" stroke="#35978f" stroke-width="2" opacity="1"/>
		<line x1="609" y1="462" x2="725" y2="462" stroke="#35978f" stroke-width="1"/>
	</g>
	<text x="615" y="454.75" fill="#000000" font-family="Verdana" font-size="12">CONFIGURATION</text>
	<text x="614" y="479.8" fill="#000000" font-family="Verdana" font-size="12">Propriété</text>
	<line x1="614" y1="482" x2="670" y2="482" stroke="#000000" stroke-width="1"/>
	<text x="614" y="496.8" fill="#000000" font-family="Verdana" font-size="12">Valeur</text>
</g>

<!-- Entity TOURS -->
<g>
	<g>
		<rect x="473" y="538" width="124" height="25" fill="#80cdc1" stroke="none" stroke-width="0" opacity="1"/>
		<rect x="473" y="563" width="124" height="59" fill="#c7eae5" stroke="none" stroke-width="0" opacity="1"/>
		<rect x="473" y="538" width="124" height="84" fill="none" stroke="#35978f" stroke-width="2" opacity="1"/>
		<line x1="473" y1="563" x2="597" y2="563" stroke="#35978f" stroke-width="1"/>
	</g>
	<text x="514" y="555.75" fill="#000000" font-family="Verdana" font-size="12">TOURS</text>
	<text x="478" y="580.8" fill="#000000" font-family="Verdana" font-size="12">Numéro</text>
	<line x1="478" y1="583" x2="527" y2="583" stroke="#000000" stroke-width="1" stroke-dasharray="4"/>
	<text x="478" y="597.8" fill="#000000" font-family="Verdana" font-size="12">Prénom</text>
	<text x="478" y="614.8" fill="#000000" font-family="Verdana" font-size="12">Date_d_inscription</text>
</g>

<!-- Entity JOUEUSE -->
<g>
	<g>
		<rect x="731" y="538" width="124" height="25" fill="#80cdc1" stroke="none" stroke-width="0" opacity="1"/>
		<rect x="731" y="563" width="124" height="59" fill="#c7eae5" stroke="none" stroke-width="0" opacity="1"/>
		<rect x="731" y="538" width="124" height="84" fill="none" stroke="#35978f" stroke-width="2" opacity="1"/>
		<line x1="731" y1="563" x2="855" y2="563" stroke="#35978f" stroke-width="1"/>
	</g>
	<text x="765" y="555.75" fill="#000000" font-family="Verdana" font-size="12">JOUEUSE</text>
	<text x="736" y="580.8" fill="#000000" font-family="Verdana" font-size="12">Prénom</text>
	<line x1="736" y1="583" x2="783" y2="583" stroke="#000000" stroke-width="1"/>
	<text x="736" y="597.8" fill="#000000" font-family="Verdana" font-size="12">Date_d_inscription</text>
	<text x="736" y="614.8" fill="#000000" font-family="Verdana" font-size="12">Avatar</text>
</g>

<!-- Entity SUBSTITUTION -->
<g>
	<g>
		<rect x="354" y="656" width="104" height="25" fill="#80cdc1" stroke="none" stroke-width="0" opacity="1"/>
		<rect x="354" y="681" width="104" height="59" fill="#c7eae5" stroke="none" stroke-width="0" opacity="1"/>
		<rect x="354" y="656" width="104" height="84" fill="none" stroke="#35978f" stroke-width="2" opacity="1"/>
		<line x1="354" y1="681" x2="458" y2="681" stroke="#35978f" stroke-width="1"/>
	</g>
	<text x="359" y="673.75" fill="#000000" font-family="Verdana" font-size="12">SUBSTITUTION</text>
	<text x="359" y="698.8" fill="#000000" font-family="Verdana" font-size="12">id</text>
	<line x1="359" y1="701" x2="371" y2="701" stroke="#000000" stroke-width="1"/>
	<text x="359" y="715.8" fill="#000000" font-family="Verdana" font-size="12">nom</text>
	<text x="359" y="732.8" fill="#000000" font-family="Verdana" font-size="12">commentaire</text>
</g>

<!-- Entity PARTIE -->
<g>
	<g>
		<rect x="632" y="647" width="70" height="25" fill="#80cdc1" stroke="none" stroke-width="0" opacity="1"/>
		<rect x="632" y="672" width="70" height="77" fill="#c7eae5" stroke="none" stroke-width="0" opacity="1"/>
		<rect x="632" y="647" width="70" height="102" fill="none" stroke="#35978f" stroke-width="2" opacity="1"/>
		<line x1="632" y1="672" x2="702" y2="672" stroke="#35978f" stroke-width="1"/>
	</g>
	<text x="645" y="664.75" fill="#000000" font-family="Verdana" font-size="12">PARTIE</text>
	<text x="637" y="689.8" fill="#000000" font-family="Verdana" font-size="12">Date_deb</text>
	<line x1="637" y1="692" x2="696" y2="692" stroke="#000000" stroke-width="1"/>
	<text x="637" y="706.8" fill="#000000" font-family="Verdana" font-size="12">Date_fin</text>
	<text x="637" y="723.8" fill="#000000" font-family="Verdana" font-size="12">Score</text>
	<text x="637" y="740.8" fill="#000000" font-family="Verdana" font-size="12">Gagnante</text>
</g>
</svg>